<svg width="512" height="512" viewBox="0 0 512 512" fill="none" xmlns="http://www.w3.org/2000/svg">
<path d="M309.328 202.665C309.328 202.665 363.65 202.665 383.995 202.665C425.232 202.665 458.661 169.236 458.661 127.999C458.661 86.7614 425.232 53.332 383.995 53.332C342.758 53.332 309.328 86.7614 309.328 127.999C309.328 148.891 309.328 202.665 309.328 202.665ZM309.328 202.665H202.661M309.328 202.665V309.332M202.661 202.665C202.661 202.665 202.661 148.891 202.661 127.999C202.661 86.7614 169.232 53.332 127.995 53.332C86.7575 53.332 53.3281 86.7614 53.3281 127.999C53.3281 169.236 86.7575 202.665 127.995 202.665C148.339 202.665 202.661 202.665 202.661 202.665ZM202.661 202.665V309.332M202.661 309.332C202.661 309.332 148.887 309.332 127.995 309.332C86.7575 309.332 53.3281 342.761 53.3281 383.999C53.3281 425.236 86.7575 458.665 127.995 458.665C169.232 458.665 202.661 425.236 202.661 383.999C202.661 363.654 202.661 309.332 202.661 309.332ZM202.661 309.332H309.328M309.328 309.332C309.328 309.332 309.328 363.106 309.328 383.999C309.328 425.236 342.758 458.665 383.995 458.665C425.232 458.665 458.661 425.236 458.661 383.999C458.661 342.761 425.232 309.332 383.995 309.332C363.65 309.332 309.328 309.332 309.328 309.332Z" stroke="#1E3050" stroke-width="32"/>
</svg>
